# xmcd
#
# Track frame offsets: 
#        150
#        27953
#        57737
#        97692
#        125668
#        160054
#        188451
#        230267
#        261775
#        289983
#        326204
#
# Disc length: 4758 seconds
#
# Revision: 0
# Processed by: cddbd v1.5.2PL0 Copyright (c) Steve Scherf et al.
# Submitted via: ExactAudioCopy v1.3
#
DISCID=9612940b
DTITLE=Various Artist - Akella Presents - vol. 188 - Long Time Blues-
DTITLE=Rock  CD2
DYEAR=2019
DGENRE=Blues
TTITLE0=Marc Amacher - Black Cat
TTITLE1=Joanne Shaw Taylor - I've Been Loving You Too Long
TTITLE2=Peer Gynt - River Of Peace
TTITLE3=The Endangered Species - Heart Breaker
TTITLE4=Lol Goodman Band - Searchin' Man Blues
TTITLE5=Tom Euler - Can't Shake It
TTITLE6=Bushwick Blooze Band - Fade Into Blue
TTITLE7=Glenn Braadland Band - Have You Ever Been So Down
TTITLE8=Pristine - Cause and Effect
TTITLE9=Freddy And The Phantoms - The Wild Ones (Revisited)
TTITLE10=Marc Amacher - Death Letter
EXTD=
EXTT0=
EXTT1=
EXTT2=
EXTT3=
EXTT4=
EXTT5=
EXTT6=
EXTT7=
EXTT8=
EXTT9=
EXTT10=
PLAYORDER=
